<svg xmlns="http://www.w3.org/2000/svg" width="185.503" height="144.934" viewBox="0 0 185.503 144.934">
  <g id="Path_114" data-name="Path 114" fill="#d1cfbf" opacity="0.62">
    <path d="M 13.8532886505127 144.43359375 C 13.85317325592041 144.43359375 13.8530797958374 144.43359375 13.85296440124512 144.43359375 C 12.86436939239502 144.4332885742188 10.93813133239746 142.9637451171875 10.90844058990479 141.9753570556641 C 10.88748836517334 141.2775573730469 12.1364688873291 141.0490112304688 12.91941928863525 140.9744415283203 C 14.45316314697266 143.5802154541016 14.15580368041992 144.2669525146484 14.11546421051025 144.3385467529297 C 14.10080623626709 144.3645629882812 14.06189155578613 144.43359375 13.8532886505127 144.43359375 Z M 168.4701995849609 143.5603790283203 C 168.5922546386719 143.2589569091797 168.8917846679688 142.6918334960938 169.6255187988281 141.6922912597656 C 169.8117980957031 141.4385681152344 169.9985504150391 141.1814270019531 170.1826324462891 140.9252166748047 C 170.513427734375 140.950439453125 170.67236328125 141.0172729492188 170.7423858642578 141.0601043701172 C 170.8134460449219 141.1035461425781 170.816650390625 141.1300048828125 170.8164825439453 141.1768188476562 C 170.8155670166016 141.4426422119141 170.4724884033203 142.0331878662109 169.7214660644531 142.7016296386719 C 169.2112426757812 143.1557464599609 168.7603454589844 143.4302215576172 168.4701995849609 143.5603790283203 Z M 147.7243499755859 140.6460266113281 C 138.8140563964844 140.6460571289062 128.7043762207031 140.4631652832031 118.9275588989258 140.2862854003906 C 109.4240341186523 140.1143646240234 100.4475631713867 139.9519805908203 92.75127410888672 139.9519805908203 C 86.08436584472656 139.9519805908203 77.40065765380859 139.8579254150391 68.20708465576172 139.7583312988281 C 57.41939163208008 139.6415100097656 46.26444244384766 139.5206756591797 36.22089385986328 139.5206756591797 C 25.76129150390625 139.5206756591797 18.30992126464844 139.6562957763672 13.46173858642578 139.9351196289062 C 4.980775356292725 125.835075378418 0.500012218952179 109.5271148681641 0.500012218952179 92.75126647949219 C 0.500012218952179 86.49181365966797 1.130583643913269 80.23643493652344 2.374226570129395 74.15888214111328 C 3.586226463317871 68.23607635498047 5.394679069519043 62.41017150878906 7.749369144439697 56.84307479858398 C 10.06134510040283 51.37690734863281 12.92298793792725 46.10476684570312 16.25477409362793 41.17304992675781 C 19.55501174926758 36.2880973815918 23.34508323669434 31.69445610046387 27.51977348327637 27.51976585388184 C 31.6944637298584 23.3450984954834 36.28808212280273 19.55500411987305 41.17306137084961 16.25476455688477 C 46.10475158691406 12.9229793548584 51.37691879272461 10.06136035919189 56.84305953979492 7.749360084533691 C 62.41017913818359 5.394670009613037 68.23606109619141 3.586217403411865 74.15888977050781 2.374217510223389 C 80.23644256591797 1.130574584007263 86.4918212890625 0.5000031590461731 92.75127410888672 0.5000031590461731 C 99.01072692871094 0.5000031590461731 105.2661056518555 1.130574584007263 111.3436584472656 2.374217510223389 C 117.266487121582 3.586217403411865 123.0923690795898 5.394670009613037 128.6594848632812 7.749360084533691 C 134.1256256103516 10.06136035919189 139.3977966308594 12.9229793548584 144.3294830322266 16.25476455688477 C 149.2144622802734 19.55500411987305 153.80810546875 23.3450984954834 157.9827728271484 27.51976585388184 C 162.157470703125 31.69445610046387 165.9475555419922 36.2880973815918 169.2477722167969 41.17304992675781 C 172.57958984375 46.10476684570312 175.4412078857422 51.37690734863281 177.7532043457031 56.84307479858398 C 180.1078948974609 62.41017150878906 181.9163513183594 68.23607635498047 183.1283416748047 74.15888214111328 C 184.3719940185547 80.23643493652344 185.0025634765625 86.49181365966797 185.0025634765625 92.75126647949219 C 185.0025634765625 101.3615951538086 183.6318206787109 109.8309783935547 180.9284362792969 117.9241256713867 C 178.3588409423828 125.6166610717773 174.5721740722656 133.0157012939453 169.6720428466797 139.9194793701172 C 169.5148620605469 139.9253234863281 169.3477935791016 139.93701171875 169.1728668212891 139.9544525146484 C 164.5268707275391 140.4197845458984 157.5110778808594 140.64599609375 147.7243499755859 140.6460266113281 Z" stroke="none"/>
    <path d="M 92.75127410888672 1 C 86.52541351318359 1 80.30374908447266 1.627166748046875 74.25913238525391 2.86407470703125 C 68.36862945556641 4.0694580078125 62.57456207275391 5.868026733398438 57.037841796875 8.209854125976562 C 51.60140991210938 10.50926208496094 46.35789489746094 13.35536193847656 41.45295715332031 16.66909790039062 C 36.59434509277344 19.95150756835938 32.0255126953125 23.72114562988281 27.87332153320312 27.87333679199219 C 23.72113037109375 32.02550506591797 19.95149230957031 36.5943603515625 16.66908264160156 41.45295715332031 C 13.3553466796875 46.35791015625 10.50927734375 51.60143280029297 8.2098388671875 57.03783416748047 C 5.868011474609375 62.57455444335938 4.069442749023438 68.36864471435547 2.864059448242188 74.25912475585938 C 1.627151489257812 80.30376434326172 0.9999847412109375 86.52540588378906 0.9999847412109375 92.75126647949219 C 0.9999847412109375 109.3337554931641 5.401535034179688 125.4559707641602 13.73530578613281 139.4189147949219 C 18.59844970703125 139.1510162353516 25.96665954589844 139.0206451416016 36.22088623046875 139.0206451416016 C 46.26713562011719 139.0206451416016 57.4234619140625 139.1414794921875 68.21248626708984 139.2583312988281 C 77.40467834472656 139.35791015625 86.08705902099609 139.4519500732422 92.75127410888672 139.4519500732422 C 100.4523468017578 139.4519500732422 109.4313430786133 139.6143798828125 118.9375610351562 139.7863616943359 C 128.7118530273438 139.9631958007812 138.8188781738281 140.1460266113281 147.7243499755859 140.1460266113281 C 157.4940643310547 140.1460266113281 164.4935607910156 139.9206237792969 169.1232299804688 139.4568786621094 C 169.2188415527344 139.4473419189453 169.3124237060547 139.4394378662109 169.4036865234375 139.4331512451172 C 174.2077941894531 132.6258087158203 177.9246215820312 125.3384552001953 180.4541778564453 117.7656936645508 C 183.1404571533203 109.7237396240234 184.5025329589844 101.3076705932617 184.5025329589844 92.75126647949219 C 184.5025329589844 86.52540588378906 183.8753662109375 80.30376434326172 182.6384582519531 74.25912475585938 C 181.4330902099609 68.36864471435547 179.6345062255859 62.57455444335938 177.2926788330078 57.03783416748047 C 174.9932708740234 51.60143280029297 172.1471862792969 46.35791015625 168.8334350585938 41.45295715332031 C 165.5510406494141 36.5943603515625 161.7813873291016 32.02550506591797 157.6291961669922 27.87333679199219 C 153.4770355224609 23.72114562988281 148.9081726074219 19.95150756835938 144.0495910644531 16.66909790039062 C 139.1446228027344 13.35536193847656 133.9011077880859 10.50926208496094 128.4647064208984 8.209854125976562 C 122.9279937744141 5.868026733398438 117.1338958740234 4.0694580078125 111.2434158325195 2.86407470703125 C 105.1987762451172 1.627166748046875 98.97713470458984 1 92.75127410888672 1 M 12.6502685546875 141.5076904296875 C 11.73861694335938 141.6324768066406 11.43952941894531 141.8709716796875 11.40931701660156 141.9391937255859 C 11.40016174316406 141.9732360839844 11.42323303222656 142.1893310546875 11.70123291015625 142.5522155761719 C 12.23728942871094 143.2519683837891 13.14205932617188 143.7829742431641 13.65597534179688 143.9063568115234 C 13.61300659179688 143.5804138183594 13.42039489746094 142.8638153076172 12.6502685546875 141.5076904296875 M 92.75127410888672 0 C 143.9763641357422 0 185.5025329589844 41.52616882324219 185.5025329589844 92.75126647949219 C 185.5025329589844 110.51220703125 179.7594451904297 126.6523666381836 169.9328765869141 140.4152374267578 C 169.7238616943359 140.4137573242188 169.4879913330078 140.4254913330078 169.2224731445312 140.4519500732422 C 153.6314849853516 142.0135955810547 116.4080581665039 140.4519500732422 92.75127410888672 140.4519500732422 C 78.43759155273438 140.4519500732422 55.0225830078125 140.0206604003906 36.22088623046875 140.0206604003906 C 26.81831359863281 140.0206604003906 18.57208251953125 140.1284332275391 13.189697265625 140.4519500732422 C 4.885513305664062 126.7506256103516 -1.52587890625e-05 110.3214797973633 -1.52587890625e-05 92.75126647949219 C -1.52587890625e-05 41.52616882324219 41.52615356445312 0 92.75127410888672 0 Z M 169.9328765869141 140.4152374267578 C 174.960205078125 140.4505157470703 164.2947998046875 148.109130859375 169.2224731445312 141.3964080810547 C 169.461669921875 141.0705871582031 169.6983032226562 140.7437896728516 169.9328765869141 140.4152374267578 Z M 13.189697265625 140.4519500732422 C 19.14031982421875 150.2714233398438 4.62164306640625 140.9698791503906 13.189697265625 140.4519500732422 Z" stroke="none" fill="#d1cfbf"/>
  </g>
</svg>
